<svg width="26" height="37" viewBox="0 0 26 37" fill="none" xmlns="http://www.w3.org/2000/svg">
<path d="M24.6316 0C17.8579 0 11.0842 0 4.24211 0C3.28421 0 2.32632 0 1.36842 0C0.615789 0 0 0.641618 0 1.42582C0 5.27553 0 9.12524 0 12.975C0 19.106 0 25.1657 0 31.2967C0 32.7225 0 34.1484 0 35.5742C0 36.3584 0.615789 37 1.36842 37C8.14211 37 14.9158 37 21.7579 37C22.7158 37 23.6737 37 24.6316 37C25.3842 37 26 36.3584 26 35.5742C26 31.7245 26 27.8748 26 24.025C26 17.894 26 11.8343 26 5.70328C26 4.27746 26 2.85164 26 1.42582C26 0.712909 25.3842 0 24.6316 0ZM23.2632 13.0462C23.2632 19.1773 23.2632 25.237 23.2632 31.368C23.2632 32.2948 23.2632 33.2216 23.2632 34.2197C16.9 34.2197 10.6053 34.2197 4.24211 34.2197C3.76316 34.2197 3.21579 34.2197 2.73684 34.2197C2.73684 30.869 2.73684 27.447 2.73684 24.0963C2.73684 17.9653 2.73684 11.9056 2.73684 5.77457C2.73684 4.84778 2.73684 3.921 2.73684 2.92293C9.1 2.92293 15.3947 2.92293 21.7579 2.92293C22.2368 2.92293 22.7842 2.92293 23.2632 2.92293C23.2632 6.2736 23.2632 9.62428 23.2632 13.0462Z" fill="#407AFF"/>
<path d="M20.1842 23.027C17.5842 21.5299 14.9842 20.0328 12.4526 18.5357C15.0526 17.0386 17.6526 15.4702 20.1842 13.9731C21.0737 13.474 21.1421 11.9769 20.1842 11.4779C16.5579 9.55302 12.8632 7.69946 9.23684 5.7746C8.34736 5.27557 7.1842 5.84589 7.1842 6.98655C7.1842 13.6879 7.1842 20.3892 7.1842 27.0906C7.1842 27.9461 7.1842 28.8729 7.1842 29.7284C7.1842 29.8709 7.1842 30.0135 7.1842 30.1561C7.25263 30.869 7.73157 31.2255 8.27894 31.368C8.55263 31.4393 8.89473 31.4393 9.23684 31.2255C12.8632 29.3006 16.5579 27.3758 20.1842 25.4509C21.1421 24.9519 21.0737 23.526 20.1842 23.027ZM9.92105 9.90948C9.92105 9.6956 9.92105 9.55302 9.92105 9.33915C12.1105 10.4798 14.3684 11.6918 16.5579 12.8324C14.3684 14.1156 12.1105 15.4702 9.92105 16.7534C9.92105 14.4721 9.92105 12.1908 9.92105 9.90948ZM9.92105 27.7322C9.92105 25.237 9.92105 22.8131 9.92105 20.318C12.1105 21.6012 14.3684 22.8844 16.5579 24.1677C14.3684 25.3796 12.1789 26.5203 9.92105 27.7322Z" fill="#407AFF"/>
</svg>
