<svg xmlns="http://www.w3.org/2000/svg" width="200" height="200" viewBox="0 0 200 200"><g fill="#FFF"><polygon points="99 0 89.744 61.764 99 92.783 108.257 61.764"/><polygon points="99 198 108.257 136.236 99 105.217 89.744 136.236"/><polygon points="198 99.002 136.236 89.746 105.218 99.002 136.236 108.258"/><polygon points="0 99.002 61.764 108.258 92.782 99.002 61.764 89.746"/><polygon points="168.584 28.573 118.592 66.006 103.377 94.578 131.762 79.016"/><polygon points="29.416 169.428 79.408 131.995 94.623 103.423 66.239 118.984"/><polygon points="169.425 168.577 131.992 118.585 103.42 103.37 118.981 131.754"/><polygon points="28.575 29.423 66.008 79.415 94.58 94.63 79.019 66.246"/></g></svg>